<svg width="41" height="41" viewBox="0 0 41 41" fill="none" xmlns="http://www.w3.org/2000/svg">
<rect x="0.5" y="7.85962" width="36.8545" height="18.453" rx="1.5" stroke="#2DB155"/>
<rect x="19.1772" y="20.2275" width="2.65454" height="2.65454" stroke="#ED4035" stroke-width="0.5"/>
<rect x="23.3833" y="20.2275" width="2.65454" height="2.65454" stroke="#ED4035" stroke-width="0.5"/>
<rect x="27.5894" y="20.2275" width="2.65454" height="2.65454" stroke="#ED4035" stroke-width="0.5"/>
<rect x="31.7954" y="20.2275" width="2.65454" height="2.65454" stroke="#ED4035" stroke-width="0.5"/>
<rect x="18.9272" y="16.8232" width="15.7727" height="0.525757" fill="#ED4035"/>
<rect x="18.9272" y="11.5657" width="15.7727" height="0.525757" fill="#ED4035"/>
<rect x="18.9272" y="14.1943" width="15.7727" height="0.525757" fill="#ED4035"/>
<path d="M40.4833 1.22896C40.3466 1.59448 40.005 1.7892 39.7591 2.10007C39.841 2.17864 39.9299 2.25721 40.0118 2.3392C40.1587 2.48609 40.1622 2.592 40.0187 2.73547C38.741 4.01311 37.4668 5.29074 36.1892 6.56496C36.1619 6.59229 36.1311 6.61962 36.097 6.64012C36.0081 6.69136 35.9227 6.67428 35.851 6.60596C35.7758 6.53422 35.7622 6.44198 35.8168 6.34975C35.8476 6.30192 35.8886 6.26093 35.9296 6.21994C37.1184 5.03112 38.3072 3.8423 39.496 2.65349C39.5302 2.61932 39.5678 2.58858 39.6156 2.54417C39.5541 2.48951 39.5063 2.4451 39.4277 2.37678C39.3969 2.41777 39.3662 2.47243 39.3252 2.51001C35.9671 5.86807 32.6091 9.22955 29.2476 12.5842C29.1656 12.6662 29.0597 12.7311 28.9504 12.7721C28.5268 12.9326 28.0998 13.0864 27.6728 13.2333C27.5361 13.2811 27.4165 13.346 27.3175 13.4587C27.256 13.5305 27.1808 13.592 27.1091 13.6603C27.0544 13.6603 27.0032 13.6603 26.9485 13.6603C26.7709 13.4895 26.7641 13.3938 26.9554 13.223C27.1091 13.083 27.2047 12.919 27.2697 12.7277C27.4097 12.3109 27.5634 11.8976 27.7172 11.4876C27.7479 11.4022 27.8026 11.3202 27.8641 11.2553C31.5364 7.58981 35.2088 3.92087 38.8777 0.248524C39.2091 -0.0828414 39.5712 -0.0828414 39.9025 0.248524C39.9743 0.320263 40.046 0.395418 40.1212 0.46374C40.2749 0.607218 40.415 0.757529 40.4833 0.962497C40.4833 1.05132 40.4833 1.14014 40.4833 1.22896Z" fill="#ED4035"/>
<path d="M8.20261 35.0184V35.6066C8.20261 36.4154 8.10528 37.1409 7.91063 37.7831C7.71597 38.4252 7.43757 38.9718 7.07543 39.4228C6.71781 39.8738 6.28776 40.2194 5.78528 40.4596C5.2828 40.6949 4.726 40.8125 4.11488 40.8125C3.50829 40.8125 2.95375 40.6949 2.45128 40.4596C1.95332 40.2194 1.52101 39.8738 1.15434 39.4228C0.787667 38.9718 0.502478 38.4252 0.29877 37.7831C0.0995901 37.1409 0 36.4154 0 35.6066V35.0184C0 34.2096 0.0995901 33.4865 0.29877 32.8493C0.497951 32.2071 0.778614 31.6605 1.14076 31.2096C1.50743 30.7537 1.93974 30.4081 2.43769 30.1728C2.94017 29.9326 3.49471 29.8125 4.1013 29.8125C4.71242 29.8125 5.26922 29.9326 5.7717 30.1728C6.27418 30.4081 6.70649 30.7537 7.06864 31.2096C7.43078 31.6605 7.70918 32.2071 7.90384 32.8493C8.10302 33.4865 8.20261 34.2096 8.20261 35.0184ZM6.49826 35.6066V35.0037C6.49826 34.4056 6.44393 33.8787 6.33529 33.4228C6.23117 32.962 6.075 32.5772 5.86676 32.2684C5.66306 31.9547 5.41182 31.7194 5.11305 31.5625C4.81428 31.4007 4.47703 31.3199 4.1013 31.3199C3.72558 31.3199 3.39059 31.4007 3.09635 31.5625C2.8021 31.7194 2.55087 31.9547 2.34263 32.2684C2.13892 32.5772 1.98275 32.962 1.87411 33.4228C1.76546 33.8787 1.71114 34.4056 1.71114 35.0037V35.6066C1.71114 36.2047 1.76546 36.7341 1.87411 37.1949C1.98275 37.6556 2.14119 38.0453 2.34942 38.364C2.56218 38.6777 2.81568 38.9154 3.10993 39.0772C3.40417 39.2341 3.73916 39.3125 4.11488 39.3125C4.49514 39.3125 4.83238 39.2341 5.12663 39.0772C5.42087 38.9154 5.66985 38.6777 5.87355 38.364C6.07726 38.0453 6.23117 37.6556 6.33529 37.1949C6.44393 36.7341 6.49826 36.2047 6.49826 35.6066Z" fill="#ED4035"/>
<path d="M16.3781 39.2022V40.6654H11.1292V39.2022H16.3781ZM11.6113 29.9596V40.6654H9.90696V29.9596H11.6113ZM15.6922 34.4301V35.8713H11.1292V34.4301H15.6922ZM16.3441 29.9596V31.4301H11.1292V29.9596H16.3441Z" fill="#ED4035"/>
<path d="M23.6097 37.1801H25.3072C25.2529 37.8811 25.0718 38.5061 24.764 39.0551C24.4562 39.5993 24.0239 40.0282 23.4671 40.3419C22.9103 40.6556 22.2335 40.8125 21.4368 40.8125C20.8257 40.8125 20.2756 40.6949 19.7867 40.4596C19.2979 40.2194 18.8791 39.8811 18.5306 39.4449C18.182 39.0037 17.9149 38.4718 17.7293 37.8493C17.5482 37.2267 17.4577 36.5306 17.4577 35.761V34.8713C17.4577 34.1017 17.5505 33.4056 17.7361 32.7831C17.9262 32.1605 18.1978 31.6287 18.5509 31.1875C18.904 30.7414 19.3273 30.4007 19.8207 30.1654C20.3187 29.9301 20.8777 29.8125 21.4979 29.8125C22.2856 29.8125 22.951 29.9694 23.4942 30.2831C24.0374 30.5968 24.4584 31.0306 24.7572 31.5846C25.0605 32.1385 25.2461 32.7733 25.314 33.489H23.6164C23.5712 33.0282 23.4716 32.6336 23.3177 32.3051C23.1683 31.9767 22.9465 31.7267 22.6522 31.5551C22.358 31.3787 21.9732 31.2904 21.4979 31.2904C21.1086 31.2904 20.7691 31.3689 20.4794 31.5257C20.1896 31.6826 19.9475 31.913 19.7528 32.2169C19.5581 32.5208 19.411 32.8958 19.3114 33.3419C19.2164 33.7831 19.1688 34.288 19.1688 34.8566V35.761C19.1688 36.3002 19.2118 36.7904 19.2979 37.2316C19.3884 37.6679 19.5242 38.0429 19.7053 38.3566C19.8909 38.6703 20.1263 38.913 20.4115 39.0846C20.6966 39.2561 21.0384 39.3419 21.4368 39.3419C21.9211 39.3419 22.3127 39.2586 22.6115 39.0919C22.9148 38.9252 23.1434 38.6826 23.2973 38.364C23.4557 38.0404 23.5599 37.6458 23.6097 37.1801Z" fill="#ED4035"/>
<path d="M27.548 29.9596H29.069L31.9277 38.2169L34.7796 29.9596H36.3006L32.5252 40.6654H31.3166L27.548 29.9596ZM26.8554 29.9596H28.3017L28.5529 37.1066V40.6654H26.8554V29.9596ZM35.5469 29.9596H37V40.6654H35.2956V37.1066L35.5469 29.9596Z" fill="#ED4035"/>
</svg>
